<svg width="14" height="15" viewBox="0 0 14 15" fill="none" xmlns="http://www.w3.org/2000/svg">
<path d="M7.33317 0.333496H1.99984C1.25984 0.333496 0.666504 0.926829 0.666504 1.66683V12.3335C0.666504 13.0735 1.25984 13.6668 1.99984 13.6668H7.2065C6.85317 13.0602 6.6665 12.3668 6.6665 11.6668C6.6665 9.46016 8.45984 7.66683 10.6665 7.66683C10.8932 7.66683 11.1132 7.68683 11.3332 7.72016V4.3335L7.33317 0.333496ZM6.6665 5.00016V1.3335L10.3332 5.00016H6.6665ZM13.3332 12.3335H11.3332V14.3335H9.99984V12.3335H7.99984V11.0002H9.99984V9.00016H11.3332V11.0002H13.3332V12.3335Z" fill="white"/>
</svg>
