<svg width="12" height="12" viewBox="0 0 12 12" fill="none" xmlns="http://www.w3.org/2000/svg">
<path d="M1.33333 12C0.966667 12 0.652889 11.8696 0.392 11.6087C0.131111 11.3478 0.000444444 11.0338 0 10.6667V1.33334C0 0.966669 0.130667 0.652891 0.392 0.392002C0.653333 0.131113 0.967111 0.000446743 1.33333 2.29885e-06H6.3C6.52222 2.29885e-06 6.69178 0.0973356 6.80867 0.292002C6.92556 0.486669 6.93933 0.694891 6.85 0.916669C6.79444 1.09445 6.75 1.27222 6.71667 1.45C6.68333 1.62778 6.66667 1.81111 6.66667 2C6.66667 2.92222 6.99178 3.70845 7.642 4.35867C8.29222 5.00889 9.07822 5.33378 10 5.33334C10.1889 5.33334 10.3722 5.31667 10.55 5.28334C10.7278 5.25 10.9056 5.20556 11.0833 5.15C11.3056 5.07222 11.514 5.08889 11.7087 5.2C11.9033 5.31111 12.0004 5.47778 12 5.7V10.6667C12 11.0333 11.8696 11.3473 11.6087 11.6087C11.3478 11.87 11.0338 12.0004 10.6667 12H1.33333ZM2 9.33334H10L7.5 6L5.5 8.66667L4 6.66667L2 9.33334ZM10 4C9.81111 4 9.65289 3.936 9.52533 3.808C9.39778 3.68 9.33378 3.52178 9.33333 3.33334V2.66667H8.66667C8.47778 2.66667 8.31956 2.60267 8.192 2.47467C8.06444 2.34667 8.00044 2.18845 8 2C7.99956 1.81156 8.06356 1.65334 8.192 1.52534C8.32045 1.39734 8.47867 1.33334 8.66667 1.33334H9.33333V0.666669C9.33333 0.47778 9.39733 0.319558 9.52533 0.192002C9.65333 0.0644468 9.81156 0.000446743 10 2.29885e-06C10.1884 -0.000442146 10.3469 0.0635579 10.4753 0.192002C10.6038 0.320447 10.6676 0.478669 10.6667 0.666669V1.33334H11.3333C11.5222 1.33334 11.6807 1.39734 11.8087 1.52534C11.9367 1.65334 12.0004 1.81156 12 2C11.9996 2.18845 11.9356 2.34689 11.808 2.47534C11.6804 2.60378 11.5222 2.66756 11.3333 2.66667H10.6667V3.33334C10.6667 3.52222 10.6027 3.68067 10.4747 3.80867C10.3467 3.93667 10.1884 4.00045 10 4Z" fill="white"/>
</svg>
