<svg width="12" height="12" viewBox="0 0 12 12" fill="none" xmlns="http://www.w3.org/2000/svg">
<path d="M11.2502 6.00024C11.2514 6.15405 11.2047 6.30442 11.1165 6.43043C11.0283 6.55644 10.903 6.65184 10.7581 6.70337L7.7843 7.78477L6.70337 10.7581C6.65009 10.9016 6.55416 11.0254 6.42847 11.1128C6.30278 11.2002 6.15334 11.2471 6.00024 11.2471C5.84714 11.2471 5.69771 11.2002 5.57201 11.1128C5.44632 11.0254 5.35039 10.9016 5.29712 10.7581L4.21618 7.7843L1.24243 6.70337C1.0989 6.65009 0.975107 6.55416 0.88769 6.42847C0.800274 6.30278 0.753418 6.15334 0.753418 6.00024C0.753418 5.84714 0.800274 5.69771 0.88769 5.57201C0.975107 5.44632 1.0989 5.35039 1.24243 5.29712L4.21618 4.21618L5.29712 1.24243C5.35039 1.0989 5.44632 0.975107 5.57201 0.88769C5.69771 0.800274 5.84714 0.753418 6.00024 0.753418C6.15334 0.753418 6.30278 0.800274 6.42847 0.88769C6.55416 0.975107 6.65009 1.0989 6.70337 1.24243L7.78477 4.21618L10.7581 5.29712C10.903 5.34864 11.0283 5.44404 11.1165 5.57006C11.2047 5.69607 11.2514 5.84643 11.2502 6.00024Z" fill="#613EEA"/>
</svg>
